# xmcd
#
# Track frame offsets:
#	150
#	12279
#	23660
#	35414
#	47037
#	57601
#	68711
#	80684
#	93729
#	108496
#	120498
#	131506
#	142575
#	153084
#	164251
#	177434
#	190065
#	201988
#	213737
#	224762
#	237961
#	250634
#	263492
#	274402
#	285264
#	295485
#	306847
#	316765
#	328219
#
# Disc length: 4554 seconds
#
# Revision: 0
# Processed by: cddbd v1.5.2PL0 Copyright (c) Steve Scherf et al.
# Submitted via: dBpowerAMP V4.0
#
DISCID=ae11c81d
DTITLE=Various Artist - Bob Geddins Big town records story cd2
DYEAR=1900
DGENRE=
TTITLE0=Frank Motley and Lee Vernon and His motley crew - Honkin' at midnight
TTITLE1=Frank Motley and Lee Vernon and His motley crew - Frantic love
TTITLE2=Pilgrim travellers - Does Jesus Care
TTITLE3=Pilgrim travellers - Withness for my lord
TTITLE4=Frank Motley and His Motley Crew - Snatch it
TTITLE5=Frank Motley and His Motley Crew - New Hound dog
TTITLE6=Sister Foster - I'm sealed
TTITLE7=Rev OP Smith - What to do when trouble comes
TTITLE8=Joe Hill Louis - Bad woman blues
TTITLE9=Joe Hill Louis - Hydromatic woman
TTITLE10=Gospel Consolators - Jesus is with me
TTITLE11=Gospel Consolators - Joshua
TTITLE12=Four Aces - You were my first affair
TTITLE13=Four Aces - I can see angel walking
TTITLE14=Pilgrim travellers - Jezebel
TTITLE15=Pilgrim travellers - My mother died and left me
TTITLE16=James Reed - You better hold me
TTITLE17=James Reed - Things aint what they used to be
TTITLE18=Rising star gospel Singers - Ive got an intrerst over there
TTITLE19=Rising star gospel Singers - I want wings
TTITLE20=Rising star gospel Singers - Thou servant prayer
TTITLE21=Pilgrim travellers - I will tell it
TTITLE22=Pilgrim travellers - When they ring those golden bells
TTITLE23=Frank Motley and His Motley Crew - Dont ever leave me again angel face
TTITLE24=Frank Motley and His Motley Crew - when the saints go marchin on - angelface
TTITLE25=Gospel Consolators - Downward road
TTITLE26=Gospel Consolators - Gods tired
TTITLE27=Al Harrison/Que martin - Dont know where im at
TTITLE28=Velma Webster and Jean Johnson - Does Jesus Care
EXTD=
EXTT0=
EXTT1=
EXTT2=
EXTT3=
EXTT4=
EXTT5=
EXTT6=
EXTT7=
EXTT8=
EXTT9=
EXTT10=
EXTT11=
EXTT12=
EXTT13=
EXTT14=
EXTT15=
EXTT16=
EXTT17=
EXTT18=
EXTT19=
EXTT20=
EXTT21=
EXTT22=
EXTT23=
EXTT24=
EXTT25=
EXTT26=
EXTT27=
EXTT28=
PLAYORDER=
